<svg width="512" height="512" viewBox="0 0 512 512" fill="none" xmlns="http://www.w3.org/2000/svg">
<path d="M24 232V280C24 394.875 127.87 488 256 488C384.13 488 488 394.875 488 280V232H24Z" fill="#DDAF4A" id="id_101"></path>
<path d="M80 367.512V415.512C74.3101 409.583 68.9679 403.33 64 396.784V348.784C68.9679 355.33 74.3101 361.583 80 367.512V367.512Z" fill="#F2C34E" id="id_102"></path>
<path d="M128 453.488C122.499 450.219 117.165 446.75 112 443.083V395.083C117.159 398.75 122.492 402.218 128 405.488V453.488Z" fill="#F2C34E" id="id_103"></path>
<path d="M192 479.979C186.583 478.588 181.25 477.028 176 475.3V427.3C181.247 429.028 186.58 430.588 192 431.979V479.979Z" fill="#F2C34E" id="id_104"></path>
<path d="M264 439.863V487.863C261.343 487.944 258.679 488 256 488C253.321 488 250.657 487.944 248 487.863V439.863C250.657 439.944 253.321 440 256 440C258.679 440 261.343 439.944 264 439.863Z" fill="#F2C34E" id="id_105"></path>
<path d="M432 367.512V415.512C437.69 409.583 443.032 403.33 448 396.784V348.784C443.032 355.33 437.69 361.583 432 367.512Z" fill="#F2C34E" id="id_106"></path>
<path d="M384 453.488C389.501 450.219 394.835 446.75 400 443.083V395.083C394.841 398.75 389.508 402.218 384 405.488V453.488Z" fill="#F2C34E" id="id_107"></path>
<path d="M320 479.979C325.417 478.588 330.75 477.028 336 475.3V427.3C330.753 429.028 325.42 430.588 320 431.979V479.979Z" fill="#F2C34E" id="id_108"></path>
<path d="M256 440C384.13 440 488 346.875 488 232C488 117.125 384.13 24 256 24C127.87 24 24 117.125 24 232C24 346.875 127.87 440 256 440Z" fill="#f2b346" id="id_109"></path>
<path d="M256 96L152 136V209.216C152 233.725 157.631 257.908 168.458 279.896C179.285 301.885 195.019 321.092 214.446 336.036L256 368L297.554 336.036C316.981 321.092 332.715 301.885 343.542 279.896C354.369 257.908 360 233.725 360 209.216V136L256 96Z" fill="#57b8ff" id="id_110"></path>
<path d="M269.657 226.343L258.343 237.657L306.343 285.657L317.657 274.343L269.657 226.343Z" fill="#2174ab" id="id_111"></path>
<path d="M437.45 141.864L437.657 141.657L436.715 140.716C427.228 126.161 415.785 112.981 402.707 101.544C363.47 67.0156 311.369 48 256 48C200.631 48 148.53 67.0156 109.293 101.544C96.2152 112.981 84.7718 126.161 75.2846 140.716L74.3433 141.657L74.5503 141.864C57.2469 168.745 48.0313 200.032 48 232C48 281.344 69.7676 327.674 109.293 362.456C148.53 396.984 200.631 416 256 416C311.369 416 363.47 396.984 402.707 362.456C442.232 327.674 464 281.344 464 232C463.969 200.032 454.753 168.745 437.45 141.864V141.864ZM397.11 345.796L373.657 322.343C372.156 320.843 370.122 320 368 320H344V336H364.687L385.008 356.321C370.125 368.095 353.618 377.654 336 384.704V376C336 373.878 335.157 371.843 333.657 370.343L317.657 354.343L306.343 365.657L320 379.313V390.391C278.295 403.203 233.705 403.203 192 390.391V379.313L205.657 365.657L194.343 354.343L178.343 370.343C176.843 371.843 176 373.878 176 376V384.704C158.382 377.654 141.875 368.095 126.992 356.321L147.313 336H168V320H144C141.878 320 139.844 320.843 138.343 322.343L114.89 345.796C104.986 336.437 96.2299 325.935 88.8044 314.51L107.313 296H136V280H104C101.878 280 99.8436 280.843 98.3433 282.343L80.528 300.158C68.7648 277.303 63.1104 251.795 64.1135 226.11C65.1167 200.425 72.7434 175.435 86.2533 153.567L96 163.313V217.376C90.6623 219.263 86.1636 222.977 83.299 227.86C80.4343 232.743 79.3883 238.482 80.3456 244.062C81.303 249.642 84.2022 254.704 88.5307 258.353C92.8593 262.002 98.3385 264.004 104 264.004C109.661 264.004 115.141 262.002 119.469 258.353C123.798 254.704 126.697 249.642 127.654 244.062C128.612 238.482 127.566 232.743 124.701 227.86C121.836 222.977 117.338 219.263 112 217.376V160C112 157.878 111.157 155.843 109.657 154.343L95.3806 140.067C129.716 94.2932 188.886 64 256 64C323.114 64 382.284 94.2932 416.619 140.067L402.343 154.343C400.843 155.843 400 157.878 400 160V217.376C394.662 219.263 390.164 222.977 387.299 227.86C384.434 232.743 383.388 238.482 384.346 244.062C385.303 249.642 388.202 254.704 392.531 258.353C396.859 262.002 402.339 264.004 408 264.004C413.661 264.004 419.141 262.002 423.469 258.353C427.798 254.704 430.697 249.642 431.654 244.062C432.612 238.482 431.566 232.743 428.701 227.86C425.836 222.977 421.338 219.263 416 217.376V163.313L425.747 153.567C439.257 175.435 446.883 200.425 447.886 226.11C448.89 251.795 443.235 277.303 431.472 300.158L413.657 282.343C412.156 280.843 410.122 280 408 280H376V296H404.687L423.196 314.51C415.77 325.935 407.014 336.437 397.11 345.796V345.796ZM112 240C112 241.582 111.531 243.129 110.652 244.445C109.773 245.76 108.523 246.786 107.061 247.391C105.6 247.997 103.991 248.155 102.439 247.846C100.887 247.538 99.462 246.776 98.3431 245.657C97.2243 244.538 96.4624 243.113 96.1537 241.561C95.845 240.009 96.0035 238.4 96.609 236.939C97.2145 235.477 98.2398 234.227 99.5554 233.348C100.871 232.469 102.418 232 104 232C106.121 232.002 108.154 232.846 109.654 234.346C111.154 235.846 111.998 237.879 112 240ZM416 240C416 241.582 415.531 243.129 414.652 244.445C413.773 245.76 412.523 246.786 411.061 247.391C409.6 247.997 407.991 248.155 406.439 247.846C404.887 247.538 403.462 246.776 402.343 245.657C401.224 244.538 400.462 243.113 400.154 241.561C399.845 240.009 400.003 238.4 400.609 236.939C401.214 235.477 402.24 234.227 403.555 233.348C404.871 232.469 406.418 232 408 232C410.121 232.002 412.154 232.846 413.654 234.346C415.154 235.846 415.998 237.879 416 240V240Z" fill="#FFE0A9" id="id_112"></path>
<path d="M232 248C258.51 248 280 226.51 280 200C280 173.49 258.51 152 232 152C205.49 152 184 173.49 184 200C184 226.51 205.49 248 232 248Z" fill="#2174ab" id="id_113"></path>
<path d="M224 224C222.949 224.001 221.909 223.795 220.938 223.393C219.967 222.991 219.085 222.401 218.343 221.657L202.343 205.657L213.657 194.343L224 204.687L250.343 178.343L261.657 189.657L229.657 221.657C228.915 222.401 228.033 222.991 227.062 223.393C226.091 223.795 225.051 224.001 224 224V224Z" fill="#70aad6" id="id_114"></path>
</svg>